<?xml version="1.0" encoding="utf-8"?>
<!-- Generator: Adobe Illustrator 22.0.1, SVG Export Plug-In . SVG Version: 6.00 Build 0)  -->
<svg version="1.1" id="Layer_1" xmlns="http://www.w3.org/2000/svg" xmlns:xlink="http://www.w3.org/1999/xlink" x="0px" y="0px"
	 viewBox="0 0 512 512" style="enable-background:new 0 0 512 512;" xml:space="preserve">
<style type="text/css">
	.st0{fill:#35216D;}
	.st1{fill:#EDF3FC;}
	.st2{fill:#330D84;}
	.st3{fill:#FFBE1B;}
	.st4{fill:#0061F3;}
	.st5{fill:#8C7BFD;}
	.st6{fill:#FFFFFF;}
	.st7{fill:#5932AE;}
	.st8{fill:#1C46C4;}
	.st9{fill:#6857E5;}
	.st10{fill:#5D8EF9;}
	.st11{fill:#8AC9F9;}
	.st12{fill:#FFE37B;}
	.st13{fill:#FFD000;}
	.st14{fill:#2EF39E;}
	.st15{fill:#330D84;stroke:#330D84;stroke-width:0.6306;stroke-linecap:round;stroke-linejoin:round;stroke-miterlimit:10;}
	.st16{fill:#FFFFFF;stroke:#FFFFFF;stroke-width:0.737;stroke-linecap:round;stroke-linejoin:round;stroke-miterlimit:10;}
	.st17{fill:none;}
	.st18{fill:#FDB813;}
</style>
<g>
	<g>
		<g>
			<path class="st1" d="M255.999,40.928c-118.778,0-215.071,96.294-215.071,215.074c0,118.776,96.292,215.068,215.071,215.068
				S471.07,374.778,471.07,256.002C471.07,137.222,374.777,40.928,255.999,40.928z"/>
		</g>
	</g>
	<g>
		<g>
			<path class="st1" d="M255.999,1C115.391,1,1,115.392,1,256.002C1,396.609,115.391,511,255.999,511S511,396.609,511,256.002
				C511,115.392,396.607,1,255.999,1z M255.999,502.831c-136.103,0-246.83-110.727-246.83-246.829
				c0-136.104,110.727-246.834,246.83-246.834c136.102,0,246.832,110.729,246.832,246.834
				C502.831,392.104,392.101,502.831,255.999,502.831z"/>
		</g>
	</g>
	<g>
		<path class="st2" d="M358.362,199.155v-66.847c0-5.523-4.477-10-10-10h-27.997c-5.523,0-10,4.477-10,10v23.097L358.362,199.155z"
			/>
	</g>
	<path class="st3" d="M355.523,250.69L256,159.975l-99.523,90.716c-0.894,0.815-1.85,1.516-2.839,2.139v89.359
		c0,11.572,9.383,20.953,20.955,20.953h162.82c11.57,0,20.949-9.381,20.949-20.953V252.84
		C357.372,252.217,356.419,251.507,355.523,250.69z"/>
	<path class="st10" d="M368.99,255.909c-4.81,0-9.633-1.724-13.467-5.219L256,159.975l-99.523,90.716
		c-8.164,7.441-20.813,6.854-28.254-1.308c-7.44-8.164-6.855-20.813,1.309-28.254l112.996-102.996
		c7.633-6.958,19.313-6.958,26.945,0l112.996,102.996c8.164,7.441,8.749,20.091,1.309,28.254
		C379.831,253.711,374.42,255.909,368.99,255.909z"/>
	<path class="st12" d="M293.999,363.142h-75.997v-89.167c0-5.523,4.477-10,10-10h55.997c5.523,0,10,4.477,10,10V363.142z"/>
	<circle class="st7" cx="256.744" cy="224.07" r="20"/>
	<path class="st2" d="M144.496,175.525l2.504,0.596l-2.504,0.599c-14.638,3.513-26.063,14.462-29.74,28.481l-0.627,2.394
		l-0.621-2.394c-3.674-14.018-15.105-24.968-29.748-28.481l-2.493-0.599l2.493-0.596c14.643-3.514,26.074-14.467,29.748-28.481
		l0.621-2.396l0.627,2.396C118.434,161.058,129.859,172.01,144.496,175.525L144.496,175.525z"/>
	<path class="st3" d="M429.325,322.089l1.953,0.465l-1.953,0.467c-11.42,2.741-20.333,11.283-23.202,22.22l-0.489,1.868
		l-0.484-1.868c-2.866-10.937-11.784-19.479-23.208-22.22l-1.945-0.467l1.945-0.465c11.424-2.742,20.342-11.287,23.208-22.22
		l0.484-1.869l0.489,1.869C408.992,310.803,417.905,319.348,429.325,322.089L429.325,322.089z"/>
	<path class="st3" d="M390.025,369.941l1.254,0.299l-1.254,0.3c-7.33,1.759-13.051,7.242-14.893,14.262L374.818,386l-0.311-1.199
		c-1.84-7.02-7.564-12.503-14.896-14.262l-1.248-0.3l1.248-0.299c7.333-1.76,13.057-7.245,14.896-14.262l0.311-1.2l0.314,1.2
		C376.974,362.696,382.695,368.181,390.025,369.941L390.025,369.941z"/>
	<path class="st10" d="M263.525,408.592l2.296,0.547l-2.296,0.549c-13.423,3.221-23.9,13.262-27.272,26.117L235.678,438
		l-0.569-2.195c-3.369-12.855-13.851-22.896-27.279-26.117l-2.286-0.549l2.286-0.547c13.428-3.223,23.91-13.266,27.279-26.118
		l0.569-2.197l0.575,2.197C239.625,395.326,250.102,405.37,263.525,408.592L263.525,408.592z"/>
</g>
</svg>
