<?xml version="1.0" encoding="utf-8"?>
<!-- Generator: Adobe Illustrator 22.0.1, SVG Export Plug-In . SVG Version: 6.00 Build 0)  -->
<svg version="1.1" id="Layer_1" xmlns="http://www.w3.org/2000/svg" xmlns:xlink="http://www.w3.org/1999/xlink" x="0px" y="0px"
	 viewBox="0 0 512 512" style="enable-background:new 0 0 512 512;" xml:space="preserve">
<style type="text/css">
	.st0{fill:#35216D;}
	.st1{fill:#EDF3FC;}
	.st2{fill:#330D84;}
	.st3{fill:#FFBE1B;}
	.st4{fill:#0061F3;}
	.st5{fill:#8C7BFD;}
	.st6{fill:#FFFFFF;}
	.st7{fill:#5932AE;}
	.st8{fill:#1C46C4;}
	.st9{fill:#6857E5;}
	.st10{fill:#5D8EF9;}
	.st11{fill:#8AC9F9;}
	.st12{fill:#FFE37B;}
	.st13{fill:#FFD000;}
	.st14{fill:#2EF39E;}
	.st15{fill:#330D84;stroke:#330D84;stroke-width:0.6306;stroke-linecap:round;stroke-linejoin:round;stroke-miterlimit:10;}
	.st16{fill:#FFFFFF;stroke:#FFFFFF;stroke-width:0.737;stroke-linecap:round;stroke-linejoin:round;stroke-miterlimit:10;}
	.st17{fill:none;}
	.st18{fill:#FDB813;}
</style>
<g>
	<g>
		<g>
			<path class="st1" d="M255.999,40.928c-118.778,0-215.071,96.294-215.071,215.074c0,118.776,96.293,215.068,215.071,215.068
				S471.07,374.778,471.07,256.002C471.07,137.222,374.777,40.928,255.999,40.928z"/>
		</g>
	</g>
	<g>
		<g>
			<path class="st1" d="M255.999,1C115.391,1,1,115.392,1,256.002C1,396.609,115.391,511,255.999,511S511,396.609,511,256.002
				C511,115.392,396.607,1,255.999,1z M255.999,502.832c-136.103,0-246.83-110.728-246.83-246.83
				c0-136.104,110.727-246.833,246.83-246.833c136.102,0,246.832,110.729,246.832,246.833
				C502.831,392.104,392.101,502.832,255.999,502.832z"/>
		</g>
	</g>
	<path class="st10" d="M367.007,395.888l1.528,0.383l-1.528,0.382c-8.947,2.243-15.928,9.226-18.17,18.173l-0.384,1.525
		l-0.383-1.525c-2.24-8.947-9.225-15.93-18.174-18.173l-1.523-0.382l1.523-0.383c8.949-2.242,15.933-9.226,18.174-18.171
		l0.383-1.524l0.384,1.524C351.079,386.662,358.06,393.646,367.007,395.888L367.007,395.888z"/>
	<path class="st3" d="M448.003,227.754l1.528,0.383l-1.528,0.382c-8.947,2.243-15.928,9.226-18.17,18.173l-0.384,1.525l-0.383-1.525
		c-2.24-8.947-9.225-15.93-18.174-18.173l-1.523-0.382l1.523-0.383c8.949-2.242,15.933-9.226,18.174-18.171l0.383-1.524l0.384,1.524
		C432.075,218.528,439.056,225.513,448.003,227.754L448.003,227.754z"/>
	<path class="st10" d="M301.58,421.105l1.779,0.446l-1.779,0.444c-10.416,2.612-18.543,10.741-21.153,21.157l-0.447,1.776
		l-0.446-1.776c-2.608-10.416-10.74-18.545-21.158-21.157l-1.772-0.444l1.772-0.446c10.418-2.61,18.549-10.741,21.158-21.154
		l0.446-1.774l0.447,1.774C283.036,410.364,291.164,418.495,301.58,421.105L301.58,421.105z"/>
	<path class="st2" d="M229.906,96.139l2.188,0.549l-2.188,0.546c-12.807,3.211-22.8,13.206-26.009,26.013l-0.549,2.184l-0.549-2.184
		c-3.207-12.807-13.205-22.802-26.014-26.013l-2.179-0.546l2.179-0.549c12.809-3.209,22.807-13.206,26.014-26.01l0.549-2.181
		l0.549,2.181C207.106,82.933,217.099,92.93,229.906,96.139L229.906,96.139z"/>
	<path class="st2" d="M274.656,105.953l1.01,0.253l-1.01,0.252c-5.915,1.483-10.531,6.099-12.013,12.015l-0.254,1.008l-0.253-1.008
		c-1.481-5.915-6.099-10.531-12.015-12.015l-1.007-0.252l1.007-0.253c5.916-1.482,10.534-6.099,12.015-12.013l0.253-1.008
		l0.254,1.008C264.126,99.854,268.741,104.471,274.656,105.953L274.656,105.953z"/>
	<path class="st10" d="M305.764,370.941h-4.978c-6.079,0-11.36-4.178-12.759-10.096l-3.304-13.988h-57.449l-3.305,13.988
		c-1.397,5.918-6.68,10.096-12.757,10.096h-4.978c-5.722,0-10.361,4.638-10.361,10.36v5.989h120.251v-5.989
		C316.125,375.578,311.486,370.941,305.764,370.941z"/>
	<path class="st11" d="M379.029,346.857h-246.06c-10.762,0-19.484-8.722-19.484-19.487V155.167c0-10.756,8.722-19.481,19.484-19.481
		h246.06c10.762,0,19.484,8.725,19.484,19.481v172.202C398.513,338.134,389.791,346.857,379.029,346.857L379.029,346.857z"/>
	<path class="st2" d="M113.485,307.591V155.167c0-10.756,8.722-19.481,19.484-19.481h246.06c10.762,0,19.484,8.725,19.484,19.481
		v152.424H113.485z"/>
	<rect x="128.519" y="152.005" class="st9" width="254.96" height="143.719"/>
	<path class="st2" d="M264.437,323.548c0,4.661-3.778,8.439-8.438,8.439c-4.66,0-8.438-3.777-8.438-8.439
		c0-4.66,3.778-8.438,8.438-8.438C260.659,315.11,264.437,318.888,264.437,323.548z"/>
	<path class="st11" d="M246.888,237.211c-8.17,0-14.794-6.625-14.794-14.794V192.26c0-1.869,0.361-3.65,0.993-5.296
		c-7.652-4.944-16.762-7.825-26.55-7.825c-27.061,0-48.999,21.937-48.999,48.999c0,27.063,21.938,49,48.999,49
		c23.961,0,43.892-17.202,48.149-39.927H246.888z"/>
	<path class="st6" d="M206.537,277.138c12.205,0,23.359-4.472,31.937-11.854c-0.477-4.788-3.786-8.881-8.467-10.29l-7.503-2.262
		c0,0-2.464-0.717-2.825-0.838c-2.288-0.769-4.054-1.578-4.442-2.787c-0.328-1.022-0.495-2.076-0.564-3.086
		c-0.041,0.025-0.083,0.046-0.124,0.07c0.935-0.551,1.881-1.176,2.843-1.927c4.006-3.132,7.73-6.681,7.73-10.665
		c0-0.5-0.017-1.299-0.045-2.315c0.283,0.054,0.582,0.054,0.86-0.083c0.933-0.456,1.786-4.124,2.1-5.308
		c0.311-1.185,0.407-2.855-0.934-3.947c-0.333-0.271-0.701-0.358-1.067-0.338c0.04-0.281,0.079-0.57,0.119-0.874
		c0.387-2.899,4.215-12.737-1.225-19.361c-2.051-2.499-4.614-3.771-7.448-3.423c-2.158-2.808-7.617-3.77-12.836-3.072
		c-5.756,0.769-9.092,1.729-13.23,4.533c-2.367,1.604-6.524,5.415-7.132,10.085c-0.556,4.268,0.523,9.126,1.345,12.111
		c-0.36-0.017-0.721,0.071-1.048,0.338c-1.341,1.092-1.245,2.762-0.934,3.947c0.311,1.185,1.166,4.852,2.1,5.308
		c0.739,0.36,1.617-0.169,1.952-0.406c-0.004,0.6-0.006,1.182-0.006,1.725c0,4.725,2.911,7.778,7.227,11.072
		c1.114,0.85,2.454,1.711,3.791,2.495c-0.068,1.021-0.235,2.087-0.567,3.121c-0.236,0.738-1.238,1.395-2.588,2.017
		c-0.837,0.387-5.986,1.989-5.986,1.989l-6.448,1.908c-4.696,1.391-8.025,5.476-8.52,10.267
		C183.183,272.668,194.336,277.138,206.537,277.138z"/>
	<path class="st3" d="M339.667,177.464h-92.779c-8.17,0-14.794,6.626-14.794,14.796v30.157c0,8.169,6.624,14.794,14.794,14.794
		h18.462l9.86,16.57l10.449-16.57h54.007c8.167,0,14.795-6.625,14.795-14.794V192.26
		C354.462,184.09,347.834,177.464,339.667,177.464z"/>
	<g>
		<path class="st6" d="M279.763,216.832c0.854,0.579,1.787,1.14,2.799,1.686c1.012,0.545,1.682,0.979,2.01,1.301
			c0.328,0.322,0.493,0.778,0.493,1.37c0,0.42-0.194,0.841-0.582,1.262c-0.388,0.42-0.857,0.631-1.409,0.631
			c-0.447,0-0.989-0.145-1.626-0.434c-0.638-0.289-1.387-0.709-2.247-1.261c-0.861-0.552-1.804-1.196-2.829-1.932
			c-1.905,0.972-4.244,1.458-7.017,1.458c-2.247,0-4.261-0.358-6.042-1.074c-1.781-0.716-3.275-1.748-4.484-3.094
			c-1.209-1.347-2.119-2.947-2.73-4.8c-0.611-1.853-0.917-3.87-0.917-6.051c0-2.221,0.318-4.258,0.956-6.11
			c0.637-1.853,1.56-3.43,2.769-4.73c1.209-1.301,2.681-2.296,4.415-2.986c1.735-0.69,3.706-1.035,5.913-1.035
			c2.996,0,5.568,0.608,7.717,1.823s3.774,2.943,4.878,5.184c1.104,2.241,1.656,4.872,1.656,7.894
			C283.488,210.518,282.247,214.151,279.763,216.832z M275.17,213.639c0.814-0.933,1.416-2.037,1.804-3.312
			c0.387-1.274,0.581-2.752,0.581-4.435c0-2.116-0.342-3.949-1.025-5.5c-0.683-1.55-1.659-2.723-2.927-3.518
			c-1.269-0.795-2.724-1.193-4.366-1.193c-1.169,0-2.25,0.22-3.242,0.661s-1.846,1.081-2.563,1.921
			c-0.716,0.841-1.281,1.916-1.695,3.223c-0.414,1.308-0.621,2.776-0.621,4.406c0,3.324,0.775,5.883,2.326,7.677
			c1.55,1.794,3.508,2.691,5.874,2.691c0.972,0,1.971-0.204,2.996-0.611c-0.618-0.46-1.39-0.919-2.316-1.38
			c-0.927-0.459-1.561-0.814-1.902-1.064s-0.512-0.604-0.512-1.064c0-0.394,0.164-0.742,0.493-1.045
			c0.328-0.302,0.69-0.453,1.084-0.453C270.354,210.643,272.358,211.641,275.17,213.639z"/>
		<path class="st6" d="M299.785,195.032l-5.519,22.726c-0.184,0.749-0.345,1.34-0.483,1.774c-0.138,0.434-0.348,0.772-0.631,1.015
			c-0.283,0.243-0.693,0.365-1.232,0.365c-1.34,0-2.01-0.578-2.01-1.734c0-0.302,0.131-1.058,0.394-2.267l5.5-22.727
			c0.289-1.208,0.564-2.037,0.828-2.483c0.263-0.446,0.775-0.67,1.538-0.67c0.657,0,1.159,0.158,1.508,0.473
			c0.348,0.315,0.522,0.749,0.522,1.301C300.198,193.212,300.061,193.955,299.785,195.032z"/>
		<path class="st6" d="M326.39,217.147l-1.38-3.626h-11.747l-1.38,3.706c-0.539,1.445-0.999,2.421-1.38,2.927
			c-0.381,0.506-1.005,0.759-1.873,0.759c-0.736,0-1.386-0.27-1.951-0.808s-0.848-1.149-0.848-1.833
			c0-0.394,0.066-0.801,0.197-1.222c0.131-0.42,0.348-1.005,0.65-1.754l7.392-18.765c0.21-0.539,0.463-1.186,0.759-1.941
			c0.295-0.755,0.611-1.383,0.946-1.882c0.335-0.499,0.775-0.903,1.321-1.212c0.545-0.309,1.219-0.463,2.021-0.463
			c0.814,0,1.495,0.154,2.04,0.463c0.545,0.309,0.985,0.707,1.32,1.193s0.618,1.008,0.848,1.567
			c0.229,0.559,0.522,1.304,0.877,2.237l7.549,18.646c0.591,1.419,0.887,2.451,0.887,3.094c0,0.67-0.279,1.285-0.837,1.843
			c-0.559,0.558-1.232,0.837-2.021,0.837c-0.46,0-0.854-0.082-1.183-0.246c-0.329-0.165-0.604-0.388-0.828-0.67
			c-0.224-0.282-0.463-0.716-0.72-1.301C326.794,218.11,326.574,217.594,326.39,217.147z M314.8,209.125h8.633l-4.356-11.925
			L314.8,209.125z"/>
	</g>
</g>
</svg>
