<?xml version="1.0" encoding="utf-8"?>
<!-- Generator: Adobe Illustrator 22.0.1, SVG Export Plug-In . SVG Version: 6.00 Build 0)  -->
<svg version="1.1" id="Layer_1" xmlns="http://www.w3.org/2000/svg" xmlns:xlink="http://www.w3.org/1999/xlink" x="0px" y="0px"
	 viewBox="0 0 512 512" style="enable-background:new 0 0 512 512;" xml:space="preserve">
<style type="text/css">
	.st0{fill:#35216D;}
	.st1{fill:#EDF3FC;}
	.st2{fill:#330D84;}
	.st3{fill:#FFBE1B;}
	.st4{fill:#0061F3;}
	.st5{fill:#8C7BFD;}
	.st6{fill:#FFFFFF;}
	.st7{fill:#5932AE;}
	.st8{fill:#1C46C4;}
	.st9{fill:#6857E5;}
	.st10{fill:#5D8EF9;}
	.st11{fill:#8AC9F9;}
	.st12{fill:#FFE37B;}
	.st13{fill:#FFD000;}
	.st14{fill:#2EF39E;}
	.st15{fill:#330D84;stroke:#330D84;stroke-width:0.6306;stroke-linecap:round;stroke-linejoin:round;stroke-miterlimit:10;}
	.st16{fill:#FFFFFF;stroke:#FFFFFF;stroke-width:0.737;stroke-linecap:round;stroke-linejoin:round;stroke-miterlimit:10;}
	.st17{fill:none;}
	.st18{fill:#FDB813;}
</style>
<g>
	<g>
		<g>
			<path class="st1" d="M255.999,40.928c-118.778,0-215.071,96.294-215.071,215.074c0,118.776,96.292,215.068,215.071,215.068
				S471.07,374.778,471.07,256.002C471.07,137.222,374.777,40.928,255.999,40.928z"/>
		</g>
	</g>
	<g>
		<g>
			<path class="st1" d="M255.999,1C115.391,1,1,115.392,1,256.002C1,396.609,115.391,511,255.999,511S511,396.609,511,256.002
				C511,115.392,396.607,1,255.999,1z M255.999,502.832c-136.103,0-246.83-110.728-246.83-246.83
				c0-136.104,110.727-246.833,246.83-246.833c136.102,0,246.832,110.729,246.832,246.833
				C502.831,392.104,392.101,502.832,255.999,502.832z"/>
		</g>
	</g>
	<path class="st3" d="M324.636,207.452c-3.396-2.768-7.913,0.185-9.893,1.77c0.655,8.696,2.27,15.323,2.736,17.098
		c0.166,4.674,0.303,8.873,0.399,12.318c0.943,0.181,1.94,0.156,2.869-0.297c3.113-1.521,5.964-13.762,7.007-17.717
		C328.793,216.67,329.113,211.094,324.636,207.452z"/>
	<path class="st3" d="M193.119,235.815c0,0-3.104-12.166-4.206-20.199c-0.221-1.604-1.805-4.407-3.583-9.265
		c-0.898,0.102-1.781,0.434-2.6,1.101c-4.477,3.643-4.154,9.219-3.117,13.172c1.04,3.955,3.895,16.195,7.01,17.717
		c2.451,1.195,5.379-0.553,6.515-1.352c0.003-0.448,0.005-0.896,0.009-1.352C193.213,235.194,193.119,235.815,193.119,235.815z"/>
	<path class="st3" d="M285.034,298.432c-1.095-3.412-1.653-6.928-1.88-10.301c-4.958,2.947-9.823,5.225-14.66,7.463
		c-4.128,1.908-19.203,2.369-24.331-0.014c-3.942-1.836-9.099-4.525-14.274-7.565c-0.223,3.408-0.782,6.967-1.889,10.416
		c-1.279,3.988-9.248,7.26-18.022,10.504c1.694,2.338,17.958,23.695,46.852,23.695c30.103,0,45.648-22.059,46.76-23.695
		C294.191,305.985,286.531,303.102,285.034,298.432z"/>
	<path class="st12" d="M314.48,200.217c0.139-7.023,0.877-15.129,0.066-20.259c-0.81-5.133-3.514-13.51-9.723-14.049
		c0,0-27.67,31.009-87.008,27.112c-5.756-0.379-10.869-1.287-15.435-2.596c-5.655,4.408-7.691,9.961-7.531,14.51
		c0.525,15.307-1.449,29.018-1.704,30.701c-0.018,2.496-0.027,4.887-0.027,7.105c0,15.766,9.712,25.961,24.117,36.949
		c8.035,6.131,19.59,12.473,26.927,15.889c5.128,2.383,20.203,1.922,24.331,0.014c7.752-3.586,15.576-7.277,23.734-13.66
		c13.367-10.455,25.797-22.295,25.797-35.596c0-3.354-0.217-10.758-0.546-20.02C316.862,223.969,314.228,213.122,314.48,200.217z"/>
	<path class="st10" d="M317.387,138.802c-6.847-8.339-15.399-12.586-24.86-11.428c-7.2-9.368-18.607-16.479-36.723-15.437
		c-28.467,1.639-76.843,20.563-75.744,65.382c1.065,25.181,8.359,34.712,8.852,38.296c1.103,8.033,4.206,20.199,4.206,20.199
		s2.293-14.533,1.731-30.879c-0.16-4.549,1.876-10.101,7.531-14.51c4.566,1.309,9.679,2.217,15.435,2.596
		c59.338,3.896,87.008-27.112,87.008-27.112c6.209,0.539,8.913,8.916,9.723,14.049c0.811,5.13,0.072,13.235-0.066,20.259
		c-0.284,14.6,3.129,26.588,3.129,26.588s3.616-6.475,5.867-23.396C324.763,193.737,335.538,160.906,317.387,138.802z"/>
	<path class="st7" d="M334.325,318.077l-30.665-9.244c0,0-15.57,23.799-46.83,23.799c-30.57,0-47.009-23.916-47.009-23.916
		l-31.952,9.455c-17.004,5.035-28.671,20.652-28.671,38.389v43.605h213.604v-43.761
		C362.802,338.745,351.234,323.169,334.325,318.077L334.325,318.077z"/>
	<path class="st2" d="M328.707,215.549c-2.762,0-5-2.238-5-5v-17.345c0-34.28-27.44-62.17-61.17-62.17h-15.074
		c-33.729,0-61.17,27.89-61.17,62.17v17.345c0,2.762-2.239,5-5,5s-5-2.238-5-5v-17.345c0-19.053,7.39-37.089,20.809-50.788
		c13.506-13.788,31.392-21.382,50.361-21.382h15.074c18.97,0,36.854,7.594,50.361,21.382c13.419,13.699,20.809,31.735,20.809,50.788
		v17.345C333.707,213.311,331.469,215.549,328.707,215.549z"/>
	<path class="st2" d="M315.783,261.538h-11.334c-2.762,0-5-2.238-5-5s2.238-5,5-5h11.334c4.228,0,7.666-3.438,7.666-7.666v-28.865
		c0-2.762,2.238-5,5-5s5,2.238,5,5v28.865C333.449,253.613,325.524,261.538,315.783,261.538z"/>
	<path class="st7" d="M184.582,225.781h-6.062c-4.677,0-8.469-3.792-8.469-8.469v-13.526c0-4.677,3.792-8.469,8.469-8.469h6.062
		c4.677,0,8.469,3.792,8.469,8.469v13.526C193.051,221.989,189.259,225.781,184.582,225.781z"/>
	<path class="st7" d="M331.48,225.781h-6.062c-4.677,0-8.469-3.792-8.469-8.469v-13.526c0-4.677,3.792-8.469,8.469-8.469h6.062
		c4.677,0,8.469,3.792,8.469,8.469v13.526C339.949,221.989,336.157,225.781,331.48,225.781z"/>
	<path class="st7" d="M298.621,263.31h-6.994c-3.219,0-5.828-2.609-5.828-5.828v-1.887c0-3.219,2.609-5.828,5.828-5.828h6.994
		c3.219,0,5.828,2.609,5.828,5.828v1.887C304.449,260.701,301.84,263.31,298.621,263.31z"/>
	<path class="st10" d="M203.67,106.548l2.037,0.485l-2.037,0.487c-11.912,2.859-21.209,11.769-24.202,23.177l-0.51,1.948
		l-0.505-1.948c-2.99-11.408-12.292-20.318-24.208-23.177l-2.029-0.487l2.029-0.485c11.916-2.86,21.219-11.773,24.208-23.178
		l0.505-1.949l0.51,1.949C182.46,94.775,191.758,103.688,203.67,106.548L203.67,106.548z"/>
	<path class="st10" d="M258.344,89.043l1.319,0.314l-1.319,0.315c-7.712,1.851-13.732,7.62-15.669,15.006l-0.33,1.261l-0.327-1.261
		c-1.936-7.386-7.958-13.155-15.673-15.006l-1.313-0.315l1.313-0.314c7.715-1.852,13.738-7.622,15.673-15.006l0.327-1.262
		l0.33,1.262C244.612,81.421,250.631,87.192,258.344,89.043L258.344,89.043z"/>
	<path class="st2" d="M151.205,311.34l2.433,0.579l-2.433,0.582c-14.224,3.414-25.326,14.054-28.899,27.676l-0.609,2.326
		l-0.603-2.326c-3.57-13.622-14.678-24.262-28.907-27.676l-2.423-0.582l2.423-0.579c14.229-3.415,25.337-14.058,28.907-27.677
		l0.603-2.328l0.609,2.328C125.878,297.281,136.981,307.925,151.205,311.34L151.205,311.34z"/>
	<path class="st3" d="M353.258,296.94l1.098,0.261l-1.098,0.262c-6.417,1.54-11.425,6.34-13.037,12.485l-0.275,1.049l-0.272-1.049
		c-1.61-6.145-6.621-10.945-13.04-12.485l-1.093-0.262l1.093-0.261c6.419-1.54,11.43-6.342,13.04-12.485l0.272-1.05l0.275,1.05
		C341.834,290.598,346.842,295.399,353.258,296.94L353.258,296.94z"/>
	<path class="st3" d="M411.98,316.033l2.067,0.492l-2.067,0.494c-12.082,2.9-21.512,11.937-24.547,23.508l-0.518,1.976l-0.513-1.976
		c-3.032-11.571-12.468-20.608-24.554-23.508l-2.058-0.494l2.058-0.492c12.086-2.901,21.522-11.941,24.554-23.509l0.513-1.977
		l0.518,1.977C390.467,304.091,399.898,313.132,411.98,316.033L411.98,316.033z"/>
</g>
</svg>
